<svg width="24" height="24" viewBox="0 0 24 24" fill="none" xmlns="http://www.w3.org/2000/svg">
<g clip-path="url(#clip0_3701_4106)">
<path d="M5.74023 11.9492C5.75 11.6172 5.86719 11.334 6.13086 11.0801L13.748 3.62891C13.9531 3.41406 14.2266 3.30664 14.5391 3.30664C15.1738 3.30664 15.6719 3.79492 15.6719 4.42969C15.6719 4.74219 15.5449 5.02539 15.3301 5.25L8.46484 11.9492L15.3301 18.6484C15.5449 18.8633 15.6719 19.1465 15.6719 19.459C15.6719 20.1035 15.1738 20.5918 14.5391 20.5918C14.2266 20.5918 13.9531 20.4844 13.748 20.2695L6.13086 12.8184C5.86719 12.5645 5.74023 12.2812 5.74023 11.9492Z" fill="#212538" fill-opacity="0.4"/>
</g>
<defs>
<clipPath id="clip0_3701_4106">
<rect width="24" height="24" fill="white"/>
</clipPath>
</defs>
</svg>
