<svg width="18" height="18" viewBox="0 0 18 18" fill="none" xmlns="http://www.w3.org/2000/svg">
<path fill-rule="evenodd" clip-rule="evenodd" d="M6.6 3C6.93137 3 7.2 3.24421 7.2 3.54545V4.09091H10.8V3.54545C10.8 3.24421 11.0686 3 11.4 3C11.7314 3 12 3.24421 12 3.54545V4.09091H13.2C14.1941 4.09091 15 4.82353 15 5.72727V13.3636C15 14.2674 14.1941 15 13.2 15H4.8C3.80589 15 3 14.2674 3 13.3636V5.72727C3 4.82353 3.80589 4.09091 4.8 4.09091H6V3.54545C6 3.24421 6.26863 3 6.6 3ZM6 5.18182H4.8C4.46863 5.18182 4.2 5.42603 4.2 5.72727V7.36364H13.8V5.72727C13.8 5.42603 13.5314 5.18182 13.2 5.18182H12V5.72727C12 6.02852 11.7314 6.27273 11.4 6.27273C11.0686 6.27273 10.8 6.02852 10.8 5.72727V5.18182H7.2V5.72727C7.2 6.02852 6.93137 6.27273 6.6 6.27273C6.26863 6.27273 6 6.02852 6 5.72727V5.18182ZM13.8 8.45455H4.2V13.3636C4.2 13.6649 4.46863 13.9091 4.8 13.9091H13.2C13.5314 13.9091 13.8 13.6649 13.8 13.3636V8.45455Z" fill="#409EFF"/>
</svg>
