<svg width="24" height="24" viewBox="0 0 24 24" fill="none" xmlns="http://www.w3.org/2000/svg">
<path d="M6.66406 19.5625C5.03125 19.5625 4.21094 18.7578 4.21094 17.1406V7.60156C4.21094 5.98438 5.03125 5.17969 6.66406 5.17969H17.3359C18.9688 5.17969 19.7812 5.99219 19.7812 7.60156V17.1406C19.7812 18.75 18.9688 19.5625 17.3359 19.5625H6.66406ZM6.54688 18.3047H17.4375C18.1328 18.3047 18.5234 17.9375 18.5234 17.2109V9.84375C18.5234 9.125 18.1328 8.75 17.4375 8.75H6.54688C5.85156 8.75 5.46875 9.125 5.46875 9.84375V17.2109C5.46875 17.9375 5.85156 18.3047 6.54688 18.3047ZM10.4766 11.5547C10.2031 11.5547 10.1094 11.4766 10.1094 11.2031V10.7422C10.1094 10.4688 10.2031 10.3828 10.4766 10.3828H10.9375C11.2109 10.3828 11.2969 10.4688 11.2969 10.7422V11.2031C11.2969 11.4766 11.2109 11.5547 10.9375 11.5547H10.4766ZM13.0703 11.5547C12.7969 11.5547 12.7031 11.4766 12.7031 11.2031V10.7422C12.7031 10.4688 12.7969 10.3828 13.0703 10.3828H13.5312C13.8047 10.3828 13.8984 10.4688 13.8984 10.7422V11.2031C13.8984 11.4766 13.8047 11.5547 13.5312 11.5547H13.0703ZM15.6641 11.5547C15.3906 11.5547 15.3047 11.4766 15.3047 11.2031V10.7422C15.3047 10.4688 15.3906 10.3828 15.6641 10.3828H16.125C16.3984 10.3828 16.4922 10.4688 16.4922 10.7422V11.2031C16.4922 11.4766 16.3984 11.5547 16.125 11.5547H15.6641ZM7.88281 14.1094C7.60156 14.1094 7.51562 14.0312 7.51562 13.7578V13.2969C7.51562 13.0234 7.60156 12.9453 7.88281 12.9453H8.33594C8.61719 12.9453 8.70312 13.0234 8.70312 13.2969V13.7578C8.70312 14.0312 8.61719 14.1094 8.33594 14.1094H7.88281ZM10.4766 14.1094C10.2031 14.1094 10.1094 14.0312 10.1094 13.7578V13.2969C10.1094 13.0234 10.2031 12.9453 10.4766 12.9453H10.9375C11.2109 12.9453 11.2969 13.0234 11.2969 13.2969V13.7578C11.2969 14.0312 11.2109 14.1094 10.9375 14.1094H10.4766ZM13.0703 14.1094C12.7969 14.1094 12.7031 14.0312 12.7031 13.7578V13.2969C12.7031 13.0234 12.7969 12.9453 13.0703 12.9453H13.5312C13.8047 12.9453 13.8984 13.0234 13.8984 13.2969V13.7578C13.8984 14.0312 13.8047 14.1094 13.5312 14.1094H13.0703ZM15.6641 14.1094C15.3906 14.1094 15.3047 14.0312 15.3047 13.7578V13.2969C15.3047 13.0234 15.3906 12.9453 15.6641 12.9453H16.125C16.3984 12.9453 16.4922 13.0234 16.4922 13.2969V13.7578C16.4922 14.0312 16.3984 14.1094 16.125 14.1094H15.6641ZM7.88281 16.6719C7.60156 16.6719 7.51562 16.5859 7.51562 16.3125V15.8516C7.51562 15.5781 7.60156 15.5 7.88281 15.5H8.33594C8.61719 15.5 8.70312 15.5781 8.70312 15.8516V16.3125C8.70312 16.5859 8.61719 16.6719 8.33594 16.6719H7.88281ZM10.4766 16.6719C10.2031 16.6719 10.1094 16.5859 10.1094 16.3125V15.8516C10.1094 15.5781 10.2031 15.5 10.4766 15.5H10.9375C11.2109 15.5 11.2969 15.5781 11.2969 15.8516V16.3125C11.2969 16.5859 11.2109 16.6719 10.9375 16.6719H10.4766ZM13.0703 16.6719C12.7969 16.6719 12.7031 16.5859 12.7031 16.3125V15.8516C12.7031 15.5781 12.7969 15.5 13.0703 15.5H13.5312C13.8047 15.5 13.8984 15.5781 13.8984 15.8516V16.3125C13.8984 16.5859 13.8047 16.6719 13.5312 16.6719H13.0703Z" fill="#363636" fill-opacity="0.58"/>
</svg>
