<svg width="24" height="24" viewBox="0 0 24 24" fill="none" xmlns="http://www.w3.org/2000/svg">
<g clip-path="url(#clip0_86_11313)">
<path d="M4.01953 19.8721C2.12109 19.8721 1.13672 18.8877 1.13672 17.0156V7.7959C1.13672 5.92383 2.12109 4.93945 4.01953 4.93945H6.38379C7.06934 4.93945 7.29785 4.81641 7.71094 4.37695L8.41406 3.62109C8.87109 3.14648 9.32812 2.90039 10.2246 2.90039H13.7227C14.6191 2.90039 15.0762 3.14648 15.5332 3.62109L16.2363 4.37695C16.6582 4.8252 16.8779 4.93945 17.5635 4.93945H19.9717C21.8701 4.93945 22.8545 5.92383 22.8545 7.7959V17.0156C22.8545 18.8877 21.8701 19.8721 19.9717 19.8721H4.01953ZM4.125 18.1494H19.875C20.6836 18.1494 21.1318 17.7188 21.1318 16.8662V7.94531C21.1318 7.09277 20.6836 6.66211 19.875 6.66211H17.0625C16.2803 6.66211 15.8672 6.52148 15.4277 6.03809L14.751 5.29102C14.2588 4.76367 13.9951 4.62305 13.2217 4.62305H10.7256C9.95215 4.62305 9.68848 4.76367 9.19629 5.2998L8.51953 6.03809C8.08008 6.53027 7.66699 6.66211 6.88477 6.66211H4.125C3.31641 6.66211 2.85938 7.09277 2.85938 7.94531V16.8662C2.85938 17.7188 3.31641 18.1494 4.125 18.1494ZM12 16.9805C9.36328 16.9805 7.25391 14.8711 7.25391 12.2256C7.25391 9.58008 9.36328 7.46191 12 7.46191C14.6367 7.46191 16.7461 9.58008 16.7461 12.2256C16.7461 14.8711 14.6279 16.9805 12 16.9805ZM17.0449 9.06152C17.0449 8.45508 17.5723 7.92773 18.1963 7.92773C18.8027 7.92773 19.3301 8.45508 19.3301 9.06152C19.3301 9.69434 18.8027 10.1953 18.1963 10.1953C17.5635 10.1953 17.0449 9.70312 17.0449 9.06152ZM12 15.4072C13.7578 15.4072 15.1816 13.9922 15.1816 12.2256C15.1816 10.4502 13.7578 9.03516 12 9.03516C10.2422 9.03516 8.81836 10.4502 8.81836 12.2256C8.81836 13.9922 10.2422 15.4072 12 15.4072Z" fill="black"/>
</g>
<defs>
<clipPath id="clip0_86_11313">
<rect width="24" height="24" fill="white"/>
</clipPath>
</defs>
</svg>
