<svg width="24" height="24" viewBox="0 0 24 24" fill="none" xmlns="http://www.w3.org/2000/svg">
<path d="M12 16.7344C11.6797 16.7344 11.4141 16.6094 11.1562 16.3594L5.28125 10.3438C5.08594 10.1406 4.97656 9.89844 4.97656 9.60938C4.97656 9.02344 5.44531 8.54688 6.02344 8.54688C6.32031 8.54688 6.58594 8.67188 6.79688 8.88281L12.0078 14.2266L17.2031 8.88281C17.4141 8.67188 17.6875 8.54688 17.9688 8.54688C18.5547 8.54688 19.0234 9.02344 19.0234 9.60938C19.0234 9.89844 18.9219 10.1406 18.7188 10.3438L12.8438 16.3516C12.5938 16.6094 12.3203 16.7344 12 16.7344Z" fill="#363636" fill-opacity="0.58"/>
</svg>
