<svg width="18" height="18" viewBox="0 0 18 18" fill="none" xmlns="http://www.w3.org/2000/svg">
<g clip-path="url(#clip0_1766_3442)">
<path d="M13.375 9.06445C13.375 9.29688 13.293 9.49512 13.1084 9.67285L7.77637 14.8887C7.62598 15.0391 7.44141 15.1143 7.22266 15.1143C6.77832 15.1143 6.42285 14.7725 6.42285 14.3213C6.42285 14.1025 6.51855 13.9043 6.66211 13.7539L11.4746 9.06445L6.66211 4.375C6.51172 4.21777 6.42285 4.01953 6.42285 3.80078C6.42285 3.35645 6.77832 3.01465 7.22266 3.01465C7.44141 3.01465 7.62598 3.08984 7.77637 3.24023L13.1084 8.45605C13.2861 8.63379 13.375 8.83203 13.375 9.06445Z" fill="#363636" fill-opacity="0.58"/>
</g>
<defs>
<clipPath id="clip0_1766_3442">
<rect width="18" height="18" fill="white"/>
</clipPath>
</defs>
</svg>
