<svg width="21" height="20" viewBox="0 0 21 20" fill="none" xmlns="http://www.w3.org/2000/svg">
<g clip-path="url(#clip0_3701_1410)">
<path d="M6.11816 10.0645C6.125 9.83203 6.20703 9.63379 6.3916 9.45605L11.7236 4.24023C11.8672 4.08984 12.0586 4.01465 12.2773 4.01465C12.7217 4.01465 13.0703 4.35645 13.0703 4.80078C13.0703 5.01953 12.9814 5.21777 12.8311 5.375L8.02539 10.0645L12.8311 14.7539C12.9814 14.9043 13.0703 15.1025 13.0703 15.3213C13.0703 15.7725 12.7217 16.1143 12.2773 16.1143C12.0586 16.1143 11.8672 16.0391 11.7236 15.8887L6.3916 10.6729C6.20703 10.4951 6.11816 10.2969 6.11816 10.0645Z" fill="#363636" fill-opacity="0.8"/>
</g>
<defs>
<clipPath id="clip0_3701_1410">
<rect width="20" height="20" fill="white" transform="translate(0.5)"/>
</clipPath>
</defs>
</svg>
