<svg width="18" height="18" viewBox="0 0 18 18" fill="none" xmlns="http://www.w3.org/2000/svg">
<path fill-rule="evenodd" clip-rule="evenodd" d="M9 16C12.866 16 16 12.866 16 9C16 5.13401 12.866 2 9 2C5.13401 2 2 5.13401 2 9C2 12.866 5.13401 16 9 16ZM7.21664 6.11669C6.9129 5.81295 6.42044 5.81295 6.11669 6.11669C5.81295 6.42044 5.81295 6.9129 6.11669 7.21664L7.90006 9L6.11669 10.7834C5.81295 11.0871 5.81295 11.5796 6.11669 11.8833C6.42044 12.187 6.9129 12.187 7.21664 11.8833L9 10.0999L10.7834 11.8833C11.0871 12.187 11.5796 12.187 11.8833 11.8833C12.187 11.5796 12.187 11.0871 11.8833 10.7834L10.0999 9L11.8833 7.21664C12.187 6.9129 12.187 6.42044 11.8833 6.11669C11.5796 5.81295 11.0871 5.81295 10.7834 6.11669L9 7.90006L7.21664 6.11669Z" fill="#858585"/>
</svg>
