<svg width="18" height="18" viewBox="0 0 18 18" fill="none" xmlns="http://www.w3.org/2000/svg">
<path d="M9 17.5984C4.27941 17.5984 0.369249 13.6966 0.369249 8.96767C0.369249 4.24707 4.27105 0.336914 8.99165 0.336914C13.7206 0.336914 17.6308 4.24707 17.6308 8.96767C17.6308 13.6966 13.7206 17.5984 9 17.5984ZM6.25955 12.5102C6.48513 12.5102 6.6773 12.4266 6.83605 12.2763L9 10.0956L11.1807 12.2763C11.3227 12.4266 11.5232 12.5102 11.7488 12.5102C12.1916 12.5102 12.5425 12.1593 12.5425 11.7081C12.5425 11.4992 12.459 11.3071 12.3086 11.1567L10.1279 8.97602L12.3169 6.787C12.4757 6.62826 12.5425 6.44444 12.5425 6.23557C12.5425 5.79275 12.2 5.4502 11.7655 5.4502C11.5399 5.4502 11.3645 5.52539 11.2057 5.68414L9 7.87316L6.81098 5.69249C6.66059 5.5421 6.48513 5.46691 6.25955 5.46691C5.81673 5.46691 5.47418 5.80111 5.47418 6.24392C5.47418 6.4528 5.55773 6.64497 5.70812 6.79536L7.88878 8.97602L5.70812 11.165C5.55773 11.3154 5.47418 11.5076 5.47418 11.7081C5.47418 12.1593 5.81673 12.5102 6.25955 12.5102Z" fill="white"/>
</svg>
