<svg width="24" height="24" viewBox="0 0 24 24" fill="none" xmlns="http://www.w3.org/2000/svg">
<g clip-path="url(#clip0_3701_6144)">
<path d="M21.7656 4.03906L20.2715 2.55469L20.9648 1.87109C21.3164 1.51953 21.873 1.4707 22.2051 1.79297L22.459 2.05664C22.8301 2.41797 22.8203 2.95508 22.4395 3.3457L21.7656 4.03906ZM10.1152 14.5371C9.89062 14.625 9.64648 14.3711 9.74414 14.1465L10.623 12.2227L19.5293 3.30664L21.0137 4.78125L12.1074 13.6973L10.1152 14.5371ZM6.42383 21.0508C4.32422 21.0508 3.2207 19.9766 3.2207 17.8867V6.68555C3.2207 4.5957 4.32422 3.51172 6.42383 3.51172H17.3027L15.3887 5.42578H6.54102C5.63281 5.42578 5.13477 5.9043 5.13477 6.85156V17.7207C5.13477 18.668 5.63281 19.1465 6.54102 19.1465H17.6934C18.3574 19.1465 18.8555 18.668 18.8555 17.7207V8.96094L20.7695 7.04688V17.8867C20.7695 19.9766 19.6758 21.0508 17.8105 21.0508H6.42383Z" fill="white"/>
</g>
<defs>
<clipPath id="clip0_3701_6144">
<rect width="24" height="24" fill="white"/>
</clipPath>
</defs>
</svg>
