<svg width="20" height="20" viewBox="0 0 20 20" fill="none" xmlns="http://www.w3.org/2000/svg">
<g clip-path="url(#clip0_1766_3460)">
<path d="M10 9.76318C8.20557 9.76318 6.7627 8.1958 6.7627 6.26221C6.7627 4.37256 8.22021 2.82715 10 2.82715C11.7871 2.82715 13.23 4.35059 13.23 6.25488C13.23 8.18848 11.7871 9.76318 10 9.76318ZM10 8.37158C10.9814 8.37158 11.7944 7.46338 11.7944 6.25488C11.7944 5.07568 10.9814 4.21875 10 4.21875C9.02588 4.21875 8.20557 5.09033 8.20557 6.26221C8.20557 7.47803 9.02588 8.37158 10 8.37158ZM5.45166 16.5967C4.15527 16.5967 3.52539 16.1719 3.52539 15.271C3.52539 13.2056 6.09619 10.5762 9.99268 10.5762C13.8965 10.5762 16.4673 13.2056 16.4673 15.271C16.4673 16.1719 15.8301 16.5967 14.5337 16.5967H5.45166ZM5.29053 15.2051H14.6948C14.856 15.2051 14.9146 15.1538 14.9146 15.0293C14.9146 13.9673 13.1348 11.9678 9.99268 11.9678C6.85059 11.9678 5.07812 13.9673 5.07812 15.0293C5.07812 15.1538 5.13672 15.2051 5.29053 15.2051Z" fill="#363636"/>
</g>
<defs>
<clipPath id="clip0_1766_3460">
<rect width="20" height="20" fill="white"/>
</clipPath>
</defs>
</svg>
