<svg width="20" height="20" viewBox="0 0 20 20" fill="none" xmlns="http://www.w3.org/2000/svg">
<g clip-path="url(#clip0_1766_3473)">
<path d="M5.50879 3.80273C5.80957 3.48145 6.28125 3.48828 6.58203 3.80273L10.0205 7.32324C10.1641 7.4668 10.2461 7.67188 10.2461 7.85645C10.2461 8.28027 9.95215 8.56738 9.53516 8.56738C9.33691 8.56738 9.16602 8.49902 9.03613 8.3623L7.62793 6.89941L6.70508 5.83984L6.75977 7.30273V15.8477C6.75977 16.2715 6.45898 16.5723 6.04199 16.5723C5.625 16.5723 5.32422 16.2715 5.32422 15.8477V7.30273L5.37891 5.83984L4.46289 6.89941L3.04785 8.3623C2.91797 8.49902 2.75391 8.56738 2.54883 8.56738C2.13184 8.56738 1.83789 8.28027 1.83789 7.85645C1.83789 7.67188 1.92676 7.4668 2.06348 7.32324L5.50879 3.80273ZM14.4912 16.3398C14.1904 16.6543 13.7188 16.6475 13.418 16.3398L9.97266 12.8057C9.83594 12.6689 9.75391 12.4639 9.75391 12.2793C9.75391 11.8555 10.0479 11.5684 10.4648 11.5684C10.6631 11.5684 10.8271 11.6367 10.9639 11.7734L12.3721 13.2295L13.2881 14.2959L13.2334 12.833V4.28809C13.2334 3.87109 13.541 3.56348 13.958 3.56348C14.375 3.56348 14.6758 3.87109 14.6758 4.28809V12.833L14.6211 14.2959L15.5371 13.2295L16.9453 11.7734C17.082 11.6367 17.2461 11.5684 17.4512 11.5684C17.8682 11.5684 18.1621 11.8555 18.1621 12.2793C18.1621 12.4639 18.0732 12.6689 17.9365 12.8057L14.4912 16.3398Z" fill="#363636"/>
</g>
<defs>
<clipPath id="clip0_1766_3473">
<rect width="20" height="20" fill="white"/>
</clipPath>
</defs>
</svg>
