<svg width="20" height="20" viewBox="0 0 20 20" fill="none" xmlns="http://www.w3.org/2000/svg">
<path d="M9.18766 14.6875C8.75619 14.6875 8.40641 14.3377 8.40641 13.9062C8.40641 13.4748 8.75619 13.125 9.18766 13.125H10.8127C11.2441 13.125 11.5939 13.4748 11.5939 13.9062C11.5939 14.3377 11.2441 14.6875 10.8127 14.6875H9.18766ZM5.92725 10.7812C5.49577 10.7812 5.146 10.4315 5.146 10C5.146 9.56853 5.49577 9.21875 5.92725 9.21875H14.0627C14.4941 9.21875 14.8439 9.56853 14.8439 10C14.8439 10.4315 14.4941 10.7812 14.0627 10.7812H5.92725ZM3.48975 6.875C3.05827 6.875 2.7085 6.52522 2.7085 6.09375C2.7085 5.66228 3.05827 5.3125 3.48975 5.3125H16.5106C16.9421 5.3125 17.2918 5.66228 17.2918 6.09375C17.2918 6.52522 16.9421 6.875 16.5106 6.875H3.48975Z" fill="#363636"/>
</svg>
