<svg width="20" height="20" viewBox="0 0 20 20" fill="none" xmlns="http://www.w3.org/2000/svg">
<g clip-path="url(#clip0_1766_3485)">
<path d="M10 15.9204C4.86475 15.9204 1.27832 11.7246 1.27832 10.4233C1.27832 9.12207 4.87109 4.93262 10 4.93262C15.1987 4.93262 18.7153 9.12207 18.7153 10.4233C18.7153 11.7246 15.2051 15.9204 10 15.9204ZM10 14.7017C14.0498 14.7017 17.2808 11.312 17.2808 10.4233C17.2808 9.68066 14.0498 6.15137 10 6.15137C5.94385 6.15137 2.71924 9.68066 2.71924 10.4233C2.71924 11.312 5.94385 14.7017 10 14.7017ZM10 13.8447C8.08936 13.8447 6.56592 12.2832 6.56592 10.4233C6.56592 8.5127 8.08936 7.0083 10 7.0083C11.9043 7.0083 13.4277 8.5127 13.4277 10.4233C13.4277 12.2832 11.9043 13.8447 10 13.8447ZM10 11.5278C10.6157 11.5278 11.1108 11.0327 11.1108 10.4233C11.1108 9.81396 10.6157 9.31885 10 9.31885C9.38428 9.31885 8.88281 9.81396 8.88281 10.4233C8.88281 11.0327 9.38428 11.5278 10 11.5278Z" fill="#363636"/>
</g>
<defs>
<clipPath id="clip0_1766_3485">
<rect width="20" height="20" fill="white"/>
</clipPath>
</defs>
</svg>
