<svg width="20" height="20" viewBox="0 0 20 20" fill="none" xmlns="http://www.w3.org/2000/svg">
<g clip-path="url(#clip0_1766_3448)">
<path d="M6.35645 17.4678C4.89355 17.4678 4.13477 16.7021 4.13477 15.2256V4.91016C4.13477 3.44043 4.89355 2.66797 6.35645 2.66797H9.65137C10.5059 2.66797 10.9775 2.80469 11.5518 3.38574L15.1406 7.03613C15.7354 7.6377 15.8584 8.0752 15.8584 9.02539V15.2256C15.8584 16.6953 15.0996 17.4678 13.6367 17.4678H6.35645ZM6.46582 16.1279H13.5205C14.1836 16.1279 14.5186 15.7793 14.5186 15.1436V9.20312H10.834C9.86328 9.20312 9.37793 8.73145 9.37793 7.75391V4.00781H6.46582C5.80273 4.00781 5.47461 4.36328 5.47461 4.99219V15.1436C5.47461 15.7793 5.80273 16.1279 6.46582 16.1279ZM10.957 8.02734H14.334L10.5605 4.19238V7.62402C10.5605 7.9043 10.6768 8.02734 10.957 8.02734Z" fill="#363636"/>
</g>
<defs>
<clipPath id="clip0_1766_3448">
<rect width="20" height="20" fill="white"/>
</clipPath>
</defs>
</svg>
