<svg width="131" height="30" viewBox="0 0 131 30" fill="none" xmlns="http://www.w3.org/2000/svg">
<path d="M1 10.8762C1 8.71022 2.1674 6.71238 4.05439 5.64902L13.0897 0.557476C13.7032 0.211745 14.4533 0.214161 15.0646 0.563837L23.9424 5.64223C25.8105 6.71085 26.9631 8.69816 26.9631 10.8503V12.2565L14.079 4.88626L1 12.2565V10.8762Z" fill="#303133"/>
<path d="M19.625 11.9227L23.9425 14.3925C25.8106 15.4611 26.9633 17.4484 26.9633 19.6006V21.0068L19.625 16.809V11.9227Z" fill="#303133"/>
<path d="M19.625 20.6945L23.9425 23.1642C25.8106 24.2329 26.9633 26.2202 26.9633 28.3723V29.7785L19.625 25.5807V20.6945Z" fill="#303133"/>
<path d="M11.5479 1.57788H16.4153V23.93L13.9816 22.4749L11.5479 21.0607V1.57788Z" fill="#303133"/>
<path d="M40.0484 12.0949H35.9941V10.1088H46.3744V12.0949H42.3202V22.7477H40.0484V12.0949Z" fill="#303133"/>
<path d="M57.2539 20.7796V22.7477H48.0794V10.1088H57.0092V12.0768H50.3512V15.363H56.2578V17.2949H50.3512V20.7796H57.2539Z" fill="#303133"/>
<path d="M67.0262 22.7477L64.5272 19.0463C64.4223 19.0583 64.2651 19.0643 64.0554 19.0643H61.2943V22.7477H59.0225V10.1088H64.0554C65.1155 10.1088 66.0359 10.2893 66.8165 10.6505C67.6087 11.0116 68.2145 11.5292 68.6339 12.2032C69.0533 12.8773 69.263 13.6778 69.263 14.6046C69.263 15.5556 69.0358 16.3741 68.5815 17.0602C68.1388 17.7463 67.498 18.2579 66.6592 18.5949L69.4727 22.7477H67.0262ZM66.9737 14.6046C66.9737 13.7981 66.7174 13.1782 66.2048 12.7449C65.6922 12.3116 64.9408 12.0949 63.9505 12.0949H61.2943V17.1324H63.9505C64.9408 17.1324 65.6922 16.9157 66.2048 16.4824C66.7174 16.037 66.9737 15.4111 66.9737 14.6046Z" fill="#303133"/>
<path d="M79.2495 22.7477L76.7505 19.0463C76.6457 19.0583 76.4884 19.0643 76.2787 19.0643H73.5176V22.7477H71.2458V10.1088H76.2787C77.3388 10.1088 78.2592 10.2893 79.0398 10.6505C79.832 11.0116 80.4378 11.5292 80.8572 12.2032C81.2766 12.8773 81.4863 13.6778 81.4863 14.6046C81.4863 15.5556 81.2591 16.3741 80.8048 17.0602C80.3621 17.7463 79.7213 18.2579 78.8825 18.5949L81.696 22.7477H79.2495ZM79.197 14.6046C79.197 13.7981 78.9407 13.1782 78.4281 12.7449C77.9155 12.3116 77.1641 12.0949 76.1738 12.0949H73.5176V17.1324H76.1738C77.1641 17.1324 77.9155 16.9157 78.4281 16.4824C78.9407 16.037 79.197 15.4111 79.197 14.6046Z" fill="#303133"/>
<path d="M92.7556 19.8227H86.6393L85.4335 22.7477H83.0918L88.5965 10.1088H90.8333L96.3555 22.7477H93.9789L92.7556 19.8227ZM92.0042 17.981L89.6974 12.456L87.4082 17.981H92.0042Z" fill="#303133"/>
<path d="M103.706 15.3268C104.836 15.4713 105.698 15.8685 106.293 16.5185C106.887 17.1685 107.184 17.981 107.184 18.956C107.184 19.6903 107.003 20.3583 106.642 20.9602C106.281 21.562 105.733 22.0435 104.999 22.4046C104.277 22.7537 103.392 22.9282 102.343 22.9282C101.469 22.9282 100.625 22.8018 99.8092 22.5491C99.0054 22.2842 98.318 21.9231 97.7472 21.4657L98.7258 19.6421C99.1685 20.0273 99.7044 20.3342 100.333 20.5629C100.974 20.7796 101.632 20.8879 102.308 20.8879C103.112 20.8879 103.741 20.7194 104.196 20.3824C104.662 20.0333 104.895 19.5639 104.895 18.9741C104.895 18.3842 104.673 17.9268 104.23 17.6018C103.799 17.2648 103.135 17.0963 102.238 17.0963H101.12V15.4893L103.898 12.0768H98.3413V10.1088H106.677V11.6796L103.706 15.3268Z" fill="#303133"/>
<path d="M114.227 14.9477C115.031 14.9477 115.753 15.1102 116.394 15.4352C117.035 15.7481 117.536 16.1995 117.897 16.7893C118.258 17.3791 118.438 18.0592 118.438 18.8296C118.438 19.6481 118.24 20.3704 117.844 20.9963C117.448 21.6102 116.912 22.0856 116.237 22.4227C115.561 22.7597 114.804 22.9282 113.965 22.9282C112.287 22.9282 110.982 22.3866 110.05 21.3032C109.13 20.2199 108.67 18.6671 108.67 16.6449C108.67 15.2245 108.92 14.0148 109.421 13.0157C109.922 12.0046 110.621 11.2403 111.518 10.7227C112.427 10.193 113.475 9.92822 114.664 9.92822C115.293 9.92822 115.881 10.0004 116.429 10.1449C116.988 10.2773 117.471 10.4759 117.879 10.7407L117.04 12.5102C116.435 12.1009 115.66 11.8963 114.716 11.8963C113.54 11.8963 112.619 12.2694 111.955 13.0157C111.291 13.762 110.959 14.8393 110.959 16.2477V16.2657C111.32 15.8324 111.78 15.5074 112.34 15.2907C112.899 15.062 113.528 14.9477 114.227 14.9477ZM113.842 21.0866C114.553 21.0866 115.13 20.894 115.572 20.5088C116.015 20.1116 116.237 19.5879 116.237 18.9379C116.237 18.2759 116.015 17.7523 115.572 17.3671C115.13 16.9819 114.536 16.7893 113.79 16.7893C113.056 16.7893 112.456 16.994 111.99 17.4032C111.536 17.8125 111.308 18.3301 111.308 18.956C111.308 19.5699 111.53 20.0815 111.973 20.4907C112.427 20.8879 113.05 21.0866 113.842 21.0866Z" fill="#303133"/>
<path d="M124.874 22.9282C123.895 22.9282 123.022 22.6754 122.253 22.1699C121.484 21.6523 120.878 20.906 120.435 19.931C119.992 18.944 119.771 17.7764 119.771 16.4282C119.771 15.0801 119.992 13.9185 120.435 12.9435C120.878 11.9565 121.484 11.2102 122.253 10.7046C123.022 10.187 123.895 9.92822 124.874 9.92822C125.853 9.92822 126.726 10.187 127.495 10.7046C128.276 11.2102 128.887 11.9565 129.33 12.9435C129.773 13.9185 129.994 15.0801 129.994 16.4282C129.994 17.7764 129.773 18.944 129.33 19.931C128.887 20.906 128.276 21.6523 127.495 22.1699C126.726 22.6754 125.853 22.9282 124.874 22.9282ZM124.874 20.8879C125.748 20.8879 126.435 20.5148 126.936 19.7685C127.449 19.0222 127.705 17.9088 127.705 16.4282C127.705 14.9477 127.449 13.8342 126.936 13.0879C126.435 12.3416 125.748 11.9685 124.874 11.9685C124.012 11.9685 123.324 12.3416 122.812 13.0879C122.311 13.8342 122.06 14.9477 122.06 16.4282C122.06 17.9088 122.311 19.0222 122.812 19.7685C123.324 20.5148 124.012 20.8879 124.874 20.8879Z" fill="#303133"/>
</svg>
