<svg width="20" height="20" viewBox="0 0 20 20" fill="none" xmlns="http://www.w3.org/2000/svg">
<path d="M1 6.22447C1 5.38297 1.45355 4.60678 2.18666 4.19366L9.45099 0.100083C9.68935 -0.034237 9.98078 -0.0332981 10.2183 0.102555L17.3655 4.19102C18.0913 4.60619 18.5391 5.37828 18.5391 6.21442V8.16322L9.83533 3.18436L1 8.16322V6.22447Z" fill="#212538"/>
<path d="M13.582 7.93799L17.3657 10.1024C18.0915 10.5176 18.5393 11.2897 18.5393 12.1258V14.0746L13.582 11.2388V7.93799Z" fill="#212538"/>
<path d="M13.582 13.8633L17.3657 16.0277C18.0915 16.4429 18.5393 17.2149 18.5393 18.0511V19.9999L13.582 17.1641V13.8633Z" fill="#212538"/>
<path d="M8.12549 0.949219H11.4136V16.0489L9.76955 15.066L8.12549 14.1106V0.949219Z" fill="#212538"/>
</svg>
