<svg width="171" height="90" viewBox="0 0 171 90" fill="none" xmlns="http://www.w3.org/2000/svg">
<path d="M61.8877 19.8776C61.8877 15.9378 64.0111 12.3039 67.4434 10.3697L83.8779 1.10861C84.9938 0.479752 86.3583 0.484146 87.4702 1.12018L103.618 10.3574C107.016 12.3011 109.113 15.9159 109.113 19.8305V22.3882L85.6773 8.98235L61.8877 22.3882V19.8776Z" fill="#303133"/>
<path d="M95.7656 21.7811L103.619 26.2734C107.017 28.2172 109.113 31.832 109.113 35.7466V38.3043L95.7656 30.6689V21.7811Z" fill="#303133"/>
<path d="M95.7656 37.7362L103.619 42.2285C107.017 44.1723 109.113 47.787 109.113 51.7017V54.2594L95.7656 46.6239V37.7362Z" fill="#303133"/>
<path d="M81.0732 2.9646H89.9267V43.6214L85.5 40.9747L81.0732 38.4024V2.9646Z" fill="#303133"/>
<path d="M7.38513 70.2004H0.0107422V66.5878H18.8917V70.2004H11.5173V89.577H7.38513V70.2004Z" fill="#303133"/>
<path d="M38.6806 85.9973V89.577H21.9929V66.5878H38.2356V70.1676H26.1251V76.1448H36.8688V79.6588H26.1251V85.9973H38.6806Z" fill="#303133"/>
<path d="M56.4556 89.577L51.9102 82.8445C51.7195 82.8664 51.4334 82.8773 51.052 82.8773H46.0298V89.577H41.8976V66.5878H51.052C52.9803 66.5878 54.6544 66.9163 56.0742 67.5731C57.5152 68.2299 58.6171 69.1714 59.3799 70.3975C60.1428 71.6236 60.5243 73.0795 60.5243 74.7654C60.5243 76.4951 60.111 77.9839 59.2846 79.2319C58.4793 80.4799 57.3138 81.4104 55.7881 82.0234L60.9057 89.577H56.4556ZM56.3603 74.7654C56.3603 73.2985 55.8941 72.1709 54.9617 71.3827C54.0293 70.5945 52.6625 70.2004 50.8613 70.2004H46.0298V79.3633H50.8613C52.6625 79.3633 54.0293 78.9692 54.9617 78.181C55.8941 77.3709 56.3603 76.2323 56.3603 74.7654Z" fill="#303133"/>
<path d="M78.6889 89.577L74.1435 82.8445C73.9528 82.8664 73.6667 82.8773 73.2852 82.8773H68.263V89.577H64.1308V66.5878H73.2852C75.2136 66.5878 76.8877 66.9163 78.3075 67.5731C79.7484 68.2299 80.8504 69.1714 81.6132 70.3975C82.3761 71.6236 82.7575 73.0795 82.7575 74.7654C82.7575 76.4951 82.3443 77.9839 81.5179 79.2319C80.7126 80.4799 79.5471 81.4104 78.0214 82.0234L83.139 89.577H78.6889ZM78.5935 74.7654C78.5935 73.2985 78.1273 72.1709 77.1949 71.3827C76.2626 70.5945 74.8958 70.2004 73.0945 70.2004H68.263V79.3633H73.0945C74.8958 79.3633 76.2626 78.9692 77.1949 78.181C78.1273 77.3709 78.5935 76.2323 78.5935 74.7654Z" fill="#303133"/>
<path d="M103.256 84.2567H92.1304L89.9371 89.577H85.6778L95.6904 66.5878H99.7591L109.803 89.577H105.481L103.256 84.2567ZM101.889 80.9068L97.693 70.8573L93.529 80.9068H101.889Z" fill="#303133"/>
<path d="M123.174 76.0791C125.229 76.3418 126.797 77.0643 127.878 78.2466C128.959 79.4289 129.499 80.9068 129.499 82.6802C129.499 84.0158 129.171 85.2309 128.514 86.3257C127.857 87.4204 126.861 88.2962 125.526 88.953C124.212 89.5879 122.602 89.9054 120.695 89.9054C119.105 89.9054 117.569 89.6755 116.086 89.2157C114.623 88.7341 113.373 88.0772 112.335 87.2452L114.115 83.9282C114.92 84.6288 115.895 85.1872 117.039 85.6032C118.205 85.9973 119.402 86.1943 120.631 86.1943C122.093 86.1943 123.237 85.8878 124.064 85.2747C124.911 84.6398 125.335 83.7859 125.335 82.7131C125.335 81.6403 124.933 80.8083 124.127 80.2171C123.343 79.6041 122.135 79.2975 120.504 79.2975H118.469V76.3746L123.523 70.1676H113.415V66.5878H128.577V69.445L123.174 76.0791Z" fill="#303133"/>
<path d="M142.31 75.3894C143.772 75.3894 145.086 75.685 146.252 76.2761C147.417 76.8454 148.328 77.6664 148.985 78.7392C149.642 79.8121 149.971 81.0491 149.971 82.4503C149.971 83.9392 149.61 85.2528 148.89 86.3914C148.169 87.508 147.195 88.3728 145.966 88.9858C144.736 89.5989 143.359 89.9054 141.833 89.9054C138.782 89.9054 136.408 88.9202 134.713 86.9497C133.039 84.9792 132.202 82.1548 132.202 78.4765C132.202 75.893 132.658 73.6926 133.569 71.8753C134.48 70.0362 135.752 68.6459 137.383 67.7044C139.036 66.7411 140.943 66.2594 143.105 66.2594C144.249 66.2594 145.319 66.3908 146.315 66.6535C147.332 66.8943 148.212 67.2556 148.953 67.7373L147.428 70.9558C146.326 70.2113 144.917 69.8391 143.2 69.8391C141.06 69.8391 139.386 70.5179 138.178 71.8753C136.97 73.2328 136.366 75.1923 136.366 77.754V77.7868C137.023 76.9986 137.86 76.4075 138.877 76.0134C139.894 75.5974 141.039 75.3894 142.31 75.3894ZM141.611 86.5556C142.903 86.5556 143.952 86.2052 144.758 85.5046C145.563 84.7821 145.966 83.8297 145.966 82.6474C145.966 81.4432 145.563 80.4908 144.758 79.7902C143.952 79.0896 142.872 78.7392 141.515 78.7392C140.18 78.7392 139.089 79.1114 138.241 79.8559C137.415 80.6003 137.002 81.5417 137.002 82.6802C137.002 83.7969 137.404 84.7274 138.21 85.4718C139.036 86.1943 140.17 86.5556 141.611 86.5556Z" fill="#303133"/>
<path d="M161.676 89.9054C159.896 89.9054 158.307 89.4456 156.908 88.5261C155.51 87.5846 154.408 86.2271 153.603 84.4537C152.797 82.6583 152.395 80.5346 152.395 78.0824C152.395 75.6302 152.797 73.5174 153.603 71.744C154.408 69.9486 155.51 68.5912 156.908 67.6716C158.307 66.7301 159.896 66.2594 161.676 66.2594C163.456 66.2594 165.046 66.7301 166.444 67.6716C167.864 68.5912 168.976 69.9486 169.782 71.744C170.587 73.5174 170.99 75.6302 170.99 78.0824C170.99 80.5346 170.587 82.6583 169.782 84.4537C168.976 86.2271 167.864 87.5846 166.444 88.5261C165.046 89.4456 163.456 89.9054 161.676 89.9054ZM161.676 86.1943C163.266 86.1943 164.516 85.5156 165.427 84.1581C166.359 82.8007 166.826 80.7754 166.826 78.0824C166.826 75.3894 166.359 73.3642 165.427 72.0067C164.516 70.6492 163.266 69.9705 161.676 69.9705C160.108 69.9705 158.858 70.6492 157.925 72.0067C157.014 73.3642 156.559 75.3894 156.559 78.0824C156.559 80.7754 157.014 82.8007 157.925 84.1581C158.858 85.5156 160.108 86.1943 161.676 86.1943Z" fill="#303133"/>
</svg>
