<svg width="24" height="24" viewBox="0 0 24 24" fill="none" xmlns="http://www.w3.org/2000/svg">
<mask id="mask0_3701_4113" style="mask-type:alpha" maskUnits="userSpaceOnUse" x="0" y="0" width="24" height="24">
<rect width="24" height="24" fill="#D9D9D9"/>
</mask>
<g mask="url(#mask0_3701_4113)">
<path d="M11.9998 20.25C11.4581 20.25 10.9977 20.0604 10.6186 19.6813C10.2394 19.3021 10.0498 18.8417 10.0498 18.3C10.0498 17.7583 10.2394 17.2979 10.6186 16.9187C10.9977 16.5396 11.4581 16.35 11.9998 16.35C12.5415 16.35 13.0019 16.5396 13.3811 16.9187C13.7602 17.2979 13.9498 17.7583 13.9498 18.3C13.9498 18.8417 13.7602 19.3021 13.3811 19.6813C13.0019 20.0604 12.5415 20.25 11.9998 20.25ZM11.9998 13.95C11.4581 13.95 10.9977 13.7604 10.6186 13.3813C10.2394 13.0021 10.0498 12.5417 10.0498 12C10.0498 11.4583 10.2394 10.9979 10.6186 10.6188C10.9977 10.2396 11.4581 10.05 11.9998 10.05C12.5415 10.05 13.0019 10.2396 13.3811 10.6188C13.7602 10.9979 13.9498 11.4583 13.9498 12C13.9498 12.5417 13.7602 13.0021 13.3811 13.3813C13.0019 13.7604 12.5415 13.95 11.9998 13.95ZM11.9998 7.65C11.4581 7.65 10.9977 7.46042 10.6186 7.08125C10.2394 6.70208 10.0498 6.24167 10.0498 5.7C10.0498 5.15833 10.2394 4.69792 10.6186 4.31875C10.9977 3.93958 11.4581 3.75 11.9998 3.75C12.5415 3.75 13.0019 3.93958 13.3811 4.31875C13.7602 4.69792 13.9498 5.15833 13.9498 5.7C13.9498 6.24167 13.7602 6.70208 13.3811 7.08125C13.0019 7.46042 12.5415 7.65 11.9998 7.65Z" fill="#363636"/>
</g>
</svg>
