<svg width="24" height="24" viewBox="0 0 24 24" fill="none" xmlns="http://www.w3.org/2000/svg">
<g clip-path="url(#clip0_3701_5702)">
<path d="M3.94043 21.1621C3.21094 21.1621 2.77148 20.7314 2.77148 19.9932V8.17188C2.77148 7.50391 3.03516 7.03809 3.6416 6.7041L8.00098 4.22559C8.31738 4.04102 8.66895 3.95312 9.0293 3.95312C9.38965 3.95312 9.75 4.0498 10.0752 4.23438L14.6982 7.03809L19.1543 4.55957C19.5059 4.36621 19.7607 4.26074 20.0508 4.26074C20.7803 4.26074 21.2197 4.7002 21.2197 5.43848V17.2422C21.2197 17.9102 20.9561 18.3848 20.3584 18.7188L15.9639 21.1973C15.6475 21.3818 15.2871 21.4785 14.9268 21.4785C14.5576 21.4785 14.1797 21.373 13.8105 21.1797L9.12598 18.5518L4.83691 20.8721C4.49414 21.0654 4.23047 21.1621 3.94043 21.1621ZM8.35254 16.9961V5.9834C8.25586 6.03613 8.16797 6.08008 8.07129 6.1416L4.72266 8.08398C4.48535 8.21582 4.39746 8.37402 4.39746 8.62012V18.8594C4.39746 18.9736 4.45898 19.0527 4.55566 19.0527C4.59961 19.0527 4.65234 19.0264 4.71387 19L8.35254 16.9961ZM10.0049 17.0488L13.626 19.0879C13.749 19.1494 13.8721 19.2109 13.9863 19.2725V8.57617L10.2861 6.34375C10.1982 6.29102 10.0928 6.23828 10.0049 6.19434V17.0488ZM15.6387 19.4043C15.7705 19.3428 15.9111 19.2637 16.043 19.1846L19.2773 17.3125C19.5059 17.1807 19.5938 17.0225 19.5938 16.7764V6.57227C19.5938 6.4668 19.5234 6.3877 19.4268 6.3877C19.3828 6.3877 19.3301 6.41406 19.2861 6.44043L15.6387 8.42676V19.4043Z" fill="black"/>
</g>
<defs>
<clipPath id="clip0_3701_5702">
<rect width="24" height="24" fill="white"/>
</clipPath>
</defs>
</svg>
