<svg width="20" height="20" viewBox="0 0 20 20" fill="none" xmlns="http://www.w3.org/2000/svg">
<path fill-rule="evenodd" clip-rule="evenodd" d="M14.2426 5.75735C14.6332 6.14787 14.6332 6.78104 14.2426 7.17156L11.4142 9.99999L14.2426 12.8284C14.6332 13.2189 14.6332 13.8521 14.2426 14.2426C13.8521 14.6332 13.219 14.6332 12.8284 14.2426L10 11.4142L7.17157 14.2426C6.78105 14.6332 6.14788 14.6332 5.75736 14.2426C5.36684 13.8521 5.36683 13.2189 5.75736 12.8284L8.58579 9.99999L5.75736 7.17156C5.36684 6.78104 5.36684 6.14787 5.75736 5.75735C6.14788 5.36683 6.78105 5.36683 7.17157 5.75735L10 8.58578L12.8284 5.75735C13.219 5.36683 13.8521 5.36683 14.2426 5.75735Z" fill="#F56C6C"/>
</svg>
