<svg width="24" height="24" viewBox="0 0 24 24" fill="none" xmlns="http://www.w3.org/2000/svg">
<path d="M23 4.5C23 6.433 21.433 8 19.5 8C17.567 8 16 6.433 16 4.5C16 2.567 17.567 1 19.5 1C21.433 1 23 2.567 23 4.5Z" fill="#409EFF"/>
<path d="M12 11C11.4477 11 11 11.4477 11 12C11 12.5523 11.4477 13 12 13L21 13C21.5523 13 22 12.5523 22 12C22 11.4477 21.5523 11 21 11L12 11Z" fill="#303133"/>
<path d="M3 19C2.44772 19 2 19.4477 2 20C2 20.5523 2.44772 21 3 21H10C10.5523 21 11 20.5523 11 20C11 19.4477 10.5523 19 10 19H3Z" fill="#303133"/>
<path d="M3 11C2.44772 11 2 11.4477 2 12C2 12.5523 2.44772 13 3 13H7V15C7 15.5523 7.44772 16 8 16C8.55229 16 9 15.5523 9 15L9 9C9 8.44771 8.55228 8 8 8C7.44772 8 7 8.44771 7 9L7 11H3Z" fill="#303133"/>
<path d="M3 3C2.44772 3 2 3.44772 2 4C2 4.55228 2.44772 5 3 5L12 5C12.5523 5 13 4.55228 13 4C13 3.44772 12.5523 3 12 3H3Z" fill="#303133"/>
<path d="M13 23C13 23.5523 13.4477 24 14 24C14.5523 24 15 23.5523 15 23V21H21C21.5523 21 22 20.5523 22 20C22 19.4477 21.5523 19 21 19H15V17C15 16.4477 14.5523 16 14 16C13.4477 16 13 16.4477 13 17V23Z" fill="#303133"/>
</svg>
