<svg width="12" height="12" viewBox="0 0 12 12" fill="none" xmlns="http://www.w3.org/2000/svg">
<g id="refresh-cw" clip-path="url(#clip0_3701_2742)">
<path id="Vector" d="M11.052 2.20801V5.05204H8.20801" stroke="white" stroke-width="1.42202" stroke-linecap="round" stroke-linejoin="round"/>
<path id="Vector_2" d="M11.0524 5.05101L8.8573 2.98434C8.20333 2.33009 7.35439 1.90607 6.43841 1.77617C5.52243 1.64627 4.58904 1.81754 3.77889 2.26416C2.96874 2.71078 2.32572 3.40855 1.94673 4.25234C1.56774 5.09613 1.47331 6.04021 1.67768 6.94232C1.88204 7.84443 2.37413 8.65569 3.07978 9.25386C3.78543 9.85203 4.66642 10.2047 5.58999 10.2587C6.51356 10.3127 7.42967 10.0652 8.20027 9.55335C8.6152 9.27776 8.97584 8.93358 9.26847 8.53843" stroke="white" stroke-width="1.42202" stroke-linecap="round" stroke-linejoin="round"/>
</g>
<defs>
<clipPath id="clip0_3701_2742">
<rect width="11.3761" height="11.3761" fill="white" transform="translate(0.624023 0.312012)"/>
</clipPath>
</defs>
</svg>
