<svg width="24" height="24" viewBox="0 0 24 24" fill="none" xmlns="http://www.w3.org/2000/svg">
<g clip-path="url(#clip0_1766_1554)">
<path d="M3.3252 10.0547C3.3252 6.1084 6.5332 2.90039 10.4795 2.90039C14.4258 2.90039 17.6338 6.1084 17.6338 10.0547C17.6338 11.5928 17.1328 13.0166 16.2979 14.168L20.3145 18.1934C20.5518 18.4395 20.6748 18.7646 20.6748 19.1162C20.6748 19.8457 20.1387 20.4082 19.3916 20.4082C19.0488 20.4082 18.7061 20.2939 18.46 20.0391L14.417 15.9961C13.292 16.7607 11.9473 17.209 10.4795 17.209C6.5332 17.209 3.3252 14.001 3.3252 10.0547ZM5.18848 10.0547C5.18848 12.9727 7.55273 15.3457 10.4795 15.3457C13.3975 15.3457 15.7705 12.9727 15.7705 10.0547C15.7705 7.13672 13.3975 4.76367 10.4795 4.76367C7.55273 4.76367 5.18848 7.13672 5.18848 10.0547Z" fill="#363636" fill-opacity="0.58"/>
</g>
<defs>
<clipPath id="clip0_1766_1554">
<rect width="24" height="24" fill="white"/>
</clipPath>
</defs>
</svg>
