<svg width="20" height="20" viewBox="0 0 20 20" fill="none" xmlns="http://www.w3.org/2000/svg">
<path fill-rule="evenodd" clip-rule="evenodd" d="M13.75 3.41669C14.1642 3.41669 14.5 3.75247 14.5 4.16669V13.8373L16.1022 12.0061C16.375 11.6944 16.8488 11.6628 17.1605 11.9356C17.4723 12.2084 17.5039 12.6822 17.2311 12.9939L14.3144 16.3272C14.172 16.49 13.9663 16.5834 13.75 16.5834C13.5337 16.5834 13.328 16.49 13.1856 16.3272L10.2689 12.9939C9.99614 12.6822 10.0277 12.2084 10.3395 11.9356C10.6512 11.6628 11.125 11.6944 11.3978 12.0061L13 13.8373V4.16669C13 3.75247 13.3358 3.41669 13.75 3.41669Z" fill="#409EFF"/>
<path fill-rule="evenodd" clip-rule="evenodd" d="M6.25001 16.5833C6.66422 16.5833 7.00001 16.2475 7.00001 15.8333V6.16273L8.60224 7.99386C8.875 8.30559 9.34882 8.33717 9.66055 8.06441C9.97228 7.79165 10.0039 7.31783 9.7311 7.0061L6.81444 3.67277C6.67202 3.51001 6.46628 3.41665 6.25001 3.41665C6.03373 3.41665 5.82799 3.51001 5.68557 3.67277L2.76891 7.0061C2.49614 7.31783 2.52773 7.79165 2.83946 8.06441C3.15119 8.33717 3.62501 8.30559 3.89777 7.99386L5.50001 6.16273V15.8333C5.50001 16.2475 5.83579 16.5833 6.25001 16.5833Z" fill="#409EFF"/>
</svg>
