<svg width="24" height="24" viewBox="0 0 24 24" fill="none" xmlns="http://www.w3.org/2000/svg">
<g clip-path="url(#clip0_3701_5130)">
<path d="M7.49805 23.1543C5.91602 23.1543 4.92969 22.2363 4.86133 20.6641L4.20703 6.68945H3.20117C2.66406 6.68945 2.23438 6.2793 2.23438 5.73242C2.23438 5.19531 2.66406 4.78516 3.20117 4.78516H7.44922V3.34961C7.44922 1.79688 8.42578 0.888672 10.125 0.888672H13.8457C15.5449 0.888672 16.5312 1.79688 16.5312 3.34961V4.78516H20.7891C21.3359 4.78516 21.7559 5.19531 21.7559 5.73242C21.7559 6.2793 21.3359 6.68945 20.7891 6.68945H19.7832L19.1289 20.6543C19.0605 22.2363 18.0645 23.1543 16.4922 23.1543H7.49805ZM9.44141 3.42773V4.78516H14.5391V3.42773C14.5391 2.95898 14.2168 2.66602 13.6992 2.66602H10.2715C9.76367 2.66602 9.44141 2.95898 9.44141 3.42773ZM7.74219 21.2305H16.2383C16.7852 21.2305 17.1465 20.8594 17.166 20.2734L17.791 6.68945H6.16992L6.81445 20.2734C6.84375 20.8496 7.20508 21.2305 7.74219 21.2305ZM9.12891 19.7266C8.70898 19.7266 8.41602 19.4531 8.40625 19.0332L8.11328 8.95508C8.10352 8.54492 8.38672 8.26172 8.82617 8.26172C9.24609 8.26172 9.53906 8.53516 9.54883 8.95508L9.8418 19.0234C9.85156 19.4336 9.56836 19.7266 9.12891 19.7266ZM12 19.7266C11.5605 19.7266 11.2676 19.4434 11.2676 19.0332V8.95508C11.2676 8.53516 11.5605 8.26172 12 8.26172C12.4297 8.26172 12.7227 8.53516 12.7227 8.95508V19.0332C12.7227 19.4434 12.4297 19.7266 12 19.7266ZM14.8613 19.7266C14.4219 19.7266 14.1387 19.4434 14.1484 19.0234L14.4414 8.95508C14.4512 8.53516 14.7441 8.26172 15.1641 8.26172C15.6035 8.26172 15.8867 8.54492 15.877 8.95508L15.584 19.0332C15.5742 19.4531 15.2812 19.7266 14.8613 19.7266Z" fill="white"/>
</g>
<defs>
<clipPath id="clip0_3701_5130">
<rect width="24" height="24" fill="white"/>
</clipPath>
</defs>
</svg>
