<svg width="24" height="24" viewBox="0 0 24 24" fill="none" xmlns="http://www.w3.org/2000/svg">
<path fill-rule="evenodd" clip-rule="evenodd" d="M12 6.00269C8.34776 6.00269 4.82101 7.33517 2.08123 9.7502C1.66693 10.1154 1.03502 10.0756 0.669818 9.66129C0.30462 9.24698 0.344429 8.61507 0.758734 8.24987C3.86381 5.51283 7.8608 4.00269 12 4.00269C16.1392 4.00269 20.1362 5.51283 23.2412 8.24987C23.6555 8.61507 23.6953 9.24698 23.3301 9.66129C22.965 10.0756 22.333 10.1154 21.9187 9.7502C19.179 7.33517 15.6522 6.00269 12 6.00269ZM12.04 11.0021C9.70146 11.0021 7.43688 11.8217 5.64 13.3183C5.21564 13.6718 4.58509 13.6143 4.23163 13.19C3.87816 12.7656 3.93564 12.135 4.36 11.7816C6.51625 9.98558 9.23375 9.00208 12.04 9.00208C14.8462 9.00208 17.5637 9.98558 19.72 11.7816C20.1444 12.135 20.2018 12.7656 19.8484 13.19C19.4949 13.6143 18.8644 13.6718 18.44 13.3183C16.6431 11.8217 14.3785 11.0021 12.04 11.0021ZM12.005 16.0012C10.9673 16.0012 9.9552 16.3241 9.1092 16.9252C8.65897 17.245 8.03469 17.1394 7.71482 16.6891C7.39496 16.2389 7.50064 15.6146 7.95086 15.2948C9.13527 14.4533 10.5521 14.0012 12.005 14.0012C13.4579 14.0012 14.8748 14.4533 16.0592 15.2948C16.5094 15.6146 16.6151 16.2389 16.2952 16.6891C15.9754 17.1394 15.3511 17.245 14.9009 16.9252C14.0549 16.3241 13.0428 16.0012 12.005 16.0012ZM11 20C11 19.4477 11.4477 19 12 19H12.01C12.5623 19 13.01 19.4477 13.01 20C13.01 20.5523 12.5623 21 12.01 21H12C11.4477 21 11 20.5523 11 20Z" fill="#67C23A"/>
</svg>
