<svg width="24" height="24" viewBox="0 0 24 24" fill="none" xmlns="http://www.w3.org/2000/svg">
<g clip-path="url(#clip0_83_7517)">
<path fill-rule="evenodd" clip-rule="evenodd" d="M0.292893 0.292893C0.683417 -0.0976311 1.31658 -0.0976311 1.70711 0.292893L6.81184 5.39763C6.82246 5.40778 6.83287 5.41819 6.84306 5.42884L10.7883 9.37407C10.8508 9.42321 10.9075 9.47982 10.9571 9.54285L23.7071 22.2929C24.0976 22.6834 24.0976 23.3166 23.7071 23.7071C23.3166 24.0976 22.6834 24.0976 22.2929 23.7071L15.6763 17.0905C15.4156 17.1427 15.1347 17.0913 14.9009 16.9252C14.0549 16.3241 13.0428 16.0012 12.005 16.0012C10.9673 16.0012 9.9552 16.3241 9.1092 16.9252C8.65897 17.245 8.03469 17.1394 7.71482 16.6891C7.39496 16.2389 7.50064 15.6146 7.95086 15.2948C9.13527 14.4533 10.5521 14.0012 12.005 14.0012C12.2087 14.0012 12.4117 14.0101 12.6135 14.0277L9.83193 11.2461C8.29276 11.593 6.85566 12.302 5.64144 13.3172C5.21774 13.6715 4.58708 13.6152 4.23282 13.1915C3.87857 12.7678 3.93486 12.1371 4.35856 11.7829C5.50171 10.8271 6.80931 10.0973 8.2115 9.62572L5.88761 7.30182C4.5032 7.91879 3.21977 8.74378 2.08227 9.74925C1.66847 10.115 1.0365 10.0761 0.67073 9.66228C0.304961 9.24848 0.343898 8.61651 0.757699 8.25074C1.85739 7.2787 3.07732 6.45539 4.38594 5.80015L0.292893 1.70711C-0.0976311 1.31658 -0.0976311 0.683417 0.292893 0.292893ZM16.7313 6.76565C14.8194 6.12941 12.7989 5.88491 10.7903 6.04675C10.2398 6.09111 9.75761 5.6808 9.71325 5.1303C9.66889 4.5798 10.0792 4.09757 10.6297 4.05321C12.906 3.86979 15.196 4.14689 17.3628 4.86796C19.5297 5.58903 21.5291 6.7393 23.2416 8.25009C23.6557 8.61546 23.6953 9.24739 23.3299 9.66154C22.9645 10.0757 22.3326 10.1152 21.9185 9.74988C20.4074 8.41682 18.6433 7.40189 16.7313 6.76565ZM15.8213 10.6215C16.0635 10.1251 16.6622 9.91914 17.1586 10.1614C18.0525 10.5977 18.8885 11.144 19.647 11.7876C20.0681 12.1449 20.1198 12.7759 19.7625 13.1971C19.4051 13.6182 18.7741 13.6699 18.353 13.3125C17.7215 12.7767 17.0256 12.322 16.2814 11.9587C15.785 11.7165 15.5791 11.1178 15.8213 10.6215ZM11 20C11 19.4477 11.4477 19 12 19H12.01C12.5623 19 13.01 19.4477 13.01 20C13.01 20.5523 12.5623 21 12.01 21H12C11.4477 21 11 20.5523 11 20Z" fill="#F56C6C"/>
</g>
<defs>
<clipPath id="clip0_83_7517">
<rect width="24" height="24" fill="white"/>
</clipPath>
</defs>
</svg>
