<svg width="24" height="24" viewBox="0 0 24 24" fill="none" xmlns="http://www.w3.org/2000/svg">
<g id="xmark-24px">
<g id="Vector">
<path d="M4.06068 6.18177C3.47489 5.59598 3.47489 4.64623 4.06068 4.06045C4.64646 3.47466 5.59621 3.47466 6.182 4.06045L19.617 17.4955C20.2028 18.0813 20.2028 19.031 19.617 19.6168C19.0312 20.2026 18.0815 20.2026 17.4957 19.6168L4.06068 6.18177Z" fill="white"/>
<path d="M6.18202 19.6168C5.59623 20.2026 4.64648 20.2026 4.0607 19.6168C3.47491 19.031 3.47491 18.0812 4.0607 17.4955L17.4957 4.06043C18.0815 3.47465 19.0313 3.47465 19.617 4.06043C20.2028 4.64622 20.2028 5.59597 19.617 6.18175L6.18202 19.6168Z" fill="white"/>
</g>
</g>
</svg>
